<?xml version="1.0" encoding="utf-8"?>
<!-- Generator: Adobe Illustrator 15.0.0, SVG Export Plug-In . SVG Version: 6.00 Build 0)  -->
<!DOCTYPE svg PUBLIC "-//W3C//DTD SVG 1.1//EN" "http://www.w3.org/Graphics/SVG/1.1/DTD/svg11.dtd">
<svg version="1.1" id="Ebene_1" xmlns="http://www.w3.org/2000/svg" xmlns:xlink="http://www.w3.org/1999/xlink" x="0px" y="0px"
	 width="470px" height="44px" viewBox="0 0 470 44" enable-background="new 0 0 470 44" xml:space="preserve">
<g>
	<path fill="#C3CD2D" d="M23.182,1.717L5.594,42.824c-0.09,0.226-0.293,0.358-0.607,0.405H0.742C0.248,43.229,0,43.047,0,42.681
		c0-0.042,0.038-0.179,0.111-0.408L17.699,1.167c0.044-0.131,0.248-0.262,0.608-0.394h4.265c0.496,0,0.744,0.179,0.744,0.539
		C23.316,1.358,23.271,1.492,23.182,1.717L23.182,1.717z"/>
	<path fill="#C3CD2D" d="M38.702,1.717L21.114,42.824c-0.089,0.226-0.292,0.358-0.606,0.405h-4.246
		c-0.494,0-0.742-0.183-0.742-0.549c0-0.042,0.037-0.179,0.11-0.408L33.219,1.167c0.044-0.131,0.249-0.262,0.608-0.394h4.265
		c0.496,0,0.744,0.179,0.744,0.539C38.836,1.358,38.792,1.492,38.702,1.717L38.702,1.717z"/>
	<path fill="#C3CD2D" d="M296.243,1.717l-17.589,41.107c-0.089,0.226-0.29,0.358-0.605,0.405h-4.244
		c-0.495,0-0.742-0.183-0.742-0.549c0-0.042,0.037-0.179,0.111-0.408l17.588-41.105c0.043-0.131,0.248-0.262,0.606-0.394h4.266
		c0.495,0,0.745,0.179,0.745,0.539C296.379,1.358,296.333,1.492,296.243,1.717L296.243,1.717z"/>
</g>
<g>
	<path d="M65.084,7.108c-1.342,0-2.483,0.473-3.423,1.417c-0.94,0.946-1.41,2.093-1.41,3.443c0,1.396,0.716,2.566,2.147,3.512
		c0.494,0.36,2.374,1.282,5.641,2.767c3.715,1.71,6.378,3.579,7.99,5.603c1.701,2.162,2.551,4.863,2.551,8.102
		c0,3.601-1.146,6.492-3.437,8.677c-2.291,2.184-5.323,3.272-9.097,3.272h-2.695c-3.774,0-6.694-1.055-8.76-3.167
		c-2.067-2.11-3.1-3.75-3.1-4.919c0-0.18,0.135-0.337,0.403-0.47l5.842-2.899c0.09-0.046,0.202-0.067,0.336-0.067
		c0.179,0,0.604,0.684,1.276,2.054c0.806,1.64,2.126,2.462,3.962,2.462h2.686c1.299,0,2.43-0.473,3.392-1.42
		c0.963-0.942,1.444-2.091,1.444-3.439c0-1.531-0.649-2.814-1.947-3.851c-0.761-0.585-2.507-1.528-5.237-2.834
		c-3.983-1.937-6.759-3.759-8.326-5.469c-1.88-2.07-2.82-4.68-2.82-7.831c0-3.602,1.146-6.493,3.438-8.676
		C58.229,1.191,61.262,0.1,65.036,0.1h1.01c3.055,0,5.616,0.742,7.683,2.225c1.167,0.854,2.223,1.954,3.167,3.302
		c0.763,1.123,1.145,1.932,1.145,2.426c0,0.225-0.134,0.404-0.403,0.539l-5.841,2.897c-0.089,0.045-0.201,0.067-0.335,0.067
		c-0.18,0-0.47-0.342-0.873-1.026c-1.343-2.28-2.842-3.421-4.498-3.421H65.084L65.084,7.108z"/>
	<path d="M110.448,42.561c0,0.445-0.225,0.669-0.674,0.669H85.986c-0.449,0-0.673-0.227-0.673-0.675V1.448
		c0-0.449,0.224-0.674,0.673-0.674h23.788c0.449,0,0.674,0.223,0.674,0.667v5.673c0,0.445-0.225,0.667-0.674,0.667H93.735
		c-0.449,0-0.673,0.227-0.673,0.678v9.021c0,0.453,0.224,0.678,0.673,0.678h13.141c0.45,0,0.675,0.223,0.675,0.667v5.672
		c0,0.445-0.225,0.668-0.675,0.668H93.735c-0.449,0-0.673,0.229-0.673,0.685v9.685c0,0.455,0.224,0.684,0.673,0.684h16.039
		c0.449,0,0.674,0.223,0.674,0.669V42.561L110.448,42.561z"/>
	<path d="M126.241,42.555c0,0.448-0.224,0.675-0.673,0.675h-6.403c-0.449,0-0.673-0.227-0.673-0.675V1.448
		c0-0.449,0.225-0.674,0.673-0.674h6.403c0.449,0,0.673,0.225,0.673,0.674V42.555L126.241,42.555z"/>
	<path fill-rule="evenodd" clip-rule="evenodd" d="M163.969,30.828c0,3.82-1.123,6.839-3.369,9.062
		c-2.247,2.225-5.301,3.339-9.165,3.339h-15.162c-0.449,0-0.674-0.227-0.674-0.675V1.448c0-0.449,0.225-0.674,0.674-0.674h15.162
		c3.864,0,6.918,1.123,9.165,3.37s3.369,5.301,3.369,9.165v0.673c0,1.708-0.494,3.235-1.482,4.583l-2.359,3.167
		c0-0.135,0.742,0.875,2.224,3.03c1.078,1.575,1.617,3.258,1.617,5.055V30.828L163.969,30.828z M156.22,13.276v-0.61
		c0-1.311-0.48-2.452-1.441-3.425c-0.961-0.972-2.09-1.458-3.385-1.458h-7.374c-0.447,0-0.67,0.227-0.67,0.678v9.021
		c0,0.453,0.223,0.678,0.67,0.678h7.374c1.295,0,2.424-0.475,3.385-1.424C155.739,15.786,156.22,14.633,156.22,13.276L156.22,13.276
		z M156.22,31.308v-1.296c0-1.364-0.458-2.513-1.375-3.445c-0.915-0.932-2.066-1.399-3.452-1.399h-7.374
		c-0.447,0-0.67,0.229-0.67,0.685v9.685c0,0.455,0.223,0.684,0.67,0.684h7.374c1.34,0,2.48-0.477,3.419-1.433
		C155.75,33.832,156.22,32.672,156.22,31.308L156.22,31.308z"/>
	<path d="M197.205,42.561c0,0.445-0.225,0.669-0.674,0.669h-23.788c-0.45,0-0.674-0.227-0.674-0.675V1.448
		c0-0.449,0.224-0.674,0.674-0.674h23.788c0.449,0,0.674,0.223,0.674,0.667v5.673c0,0.445-0.225,0.667-0.674,0.667h-16.038
		c-0.45,0-0.674,0.227-0.674,0.678v9.021c0,0.453,0.224,0.678,0.674,0.678h13.14c0.449,0,0.674,0.223,0.674,0.667v5.672
		c0,0.445-0.225,0.668-0.674,0.668h-13.14c-0.45,0-0.674,0.229-0.674,0.685v9.685c0,0.455,0.224,0.684,0.674,0.684h16.038
		c0.449,0,0.674,0.223,0.674,0.669V42.561L197.205,42.561z"/>
	<path fill-rule="evenodd" clip-rule="evenodd" d="M234.293,42.351c0.044,0.09,0.067,0.204,0.067,0.337
		c0,0.362-0.226,0.542-0.677,0.542h-6.978c-0.226,0-0.429-0.155-0.609-0.458l-5.915-17.121l-0.538-0.483h-5.974
		c-0.447,0-0.671,0.227-0.671,0.678v16.707c0,0.451-0.225,0.678-0.674,0.678h-6.402c-0.449,0-0.673-0.227-0.673-0.675V1.448
		c0-0.449,0.224-0.674,0.673-0.674h15.163c3.864,0,6.919,1.123,9.165,3.37c2.246,2.247,3.37,5.301,3.37,9.165v0.673
		c0,2.786-0.989,5.189-2.965,7.211c-0.315,0.314-0.921,0.809-1.82,1.482c-0.629,0.495-0.944,0.854-0.944,1.079v0.066L234.293,42.351
		L234.293,42.351z M225.87,13.276v-0.61c0-1.311-0.481-2.452-1.441-3.425c-0.96-0.972-2.09-1.458-3.386-1.458h-7.374
		c-0.447,0-0.67,0.227-0.67,0.678v9.021c0,0.453,0.223,0.678,0.67,0.678h7.374c1.296,0,2.425-0.475,3.386-1.424
		C225.389,15.786,225.87,14.633,225.87,13.276L225.87,13.276z"/>
	<path d="M263.752,7.115c0,0.445-0.226,0.667-0.675,0.667h-7.347c-0.448,0-0.674,0.225-0.674,0.675v34.095
		c0,0.451-0.227,0.678-0.68,0.678h-6.389c-0.455,0-0.68-0.227-0.68-0.678V8.457c0-0.45-0.226-0.675-0.675-0.675h-7.344
		c-0.451,0-0.674-0.222-0.674-0.667V1.441c0-0.444,0.223-0.667,0.674-0.667h23.784c0.452,0,0.678,0.223,0.678,0.667V7.115
		L263.752,7.115z"/>
	<path d="M346.094,42.555c0,0.448-0.223,0.675-0.671,0.675h-6.203c-0.447,0-0.673-0.227-0.673-0.675l0.605-26.282l-7.612,20.755
		c-0.269,0.27-0.473,0.405-0.606,0.405h-3.437c-0.272,0-0.474-0.136-0.606-0.405l-7.615-20.755l0.606,26.282
		c0,0.448-0.226,0.675-0.675,0.675h-6.267c-0.448,0-0.675-0.227-0.675-0.675V1.448c0-0.449,0.227-0.674,0.675-0.674h5.79
		c0.224,0.045,0.424,0.18,0.606,0.406l9.843,26.632l9.843-26.633c0.223-0.225,0.427-0.36,0.606-0.405h5.794
		c0.448,0,0.671,0.225,0.671,0.674V42.555L346.094,42.555z"/>
	<path d="M380.918,42.561c0,0.445-0.227,0.669-0.675,0.669h-23.787c-0.448,0-0.675-0.227-0.675-0.675V1.448
		c0-0.449,0.227-0.674,0.675-0.674h23.787c0.448,0,0.675,0.223,0.675,0.667v5.673c0,0.445-0.227,0.667-0.675,0.667h-16.038
		c-0.448,0-0.675,0.227-0.675,0.678v9.021c0,0.453,0.227,0.678,0.675,0.678h13.141c0.45,0,0.673,0.223,0.673,0.667v5.672
		c0,0.445-0.223,0.668-0.673,0.668h-13.141c-0.448,0-0.675,0.229-0.675,0.685v9.685c0,0.455,0.227,0.684,0.675,0.684h16.038
		c0.448,0,0.675,0.223,0.675,0.669V42.561L380.918,42.561z"/>
	<path fill-rule="evenodd" clip-rule="evenodd" d="M417.668,30.694c0,3.818-1.123,6.861-3.368,9.129
		c-2.249,2.271-5.302,3.406-9.165,3.406h-15.163c-0.448,0-0.674-0.227-0.674-0.675V1.448c0-0.449,0.226-0.674,0.674-0.674h15.163
		c3.863,0,6.916,1.123,9.165,3.37c2.245,2.247,3.368,5.301,3.368,9.165V30.694L417.668,30.694z M409.92,31.345V12.658
		c0-1.31-0.482-2.449-1.441-3.42c-0.962-0.97-2.091-1.456-3.387-1.456h-7.375c-0.445,0-0.668,0.226-0.668,0.677v27.083
		c0,0.452,0.223,0.678,0.668,0.678h7.375c1.342,0,2.479-0.474,3.418-1.423C409.45,33.851,409.92,32.699,409.92,31.345L409.92,31.345
		z"/>
	<path d="M433.62,42.555c0,0.448-0.226,0.675-0.674,0.675h-6.4c-0.451,0-0.674-0.227-0.674-0.675V1.448
		c0-0.449,0.223-0.674,0.674-0.674h6.4c0.448,0,0.674,0.225,0.674,0.674V42.555L433.62,42.555z"/>
	<path fill-rule="evenodd" clip-rule="evenodd" d="M469.932,42.351c0-0.09,0.024,0,0.068,0.272c0,0.402-0.248,0.606-0.746,0.606
		h-6.833c-0.358,0-0.584-0.155-0.673-0.465l-2.018-7.077c-0.09-0.275-0.316-0.411-0.672-0.411h-9.589
		c-0.358,0-0.581,0.136-0.671,0.411l-2.018,7.077c-0.089,0.31-0.314,0.465-0.676,0.465h-6.763c-0.498,0-0.745-0.204-0.745-0.606
		c0.043-0.226,0.067-0.316,0.067-0.272l12.534-41.104c0.09-0.315,0.315-0.472,0.675-0.472h4.85c0.361,0,0.585,0.157,0.675,0.472
		L469.932,42.351L469.932,42.351z M457.398,27.389l-2.225-8.94c-0.089-0.271-0.337-1.513-0.738-3.725h-0.204
		c-0.181,0.812-0.449,2.055-0.809,3.725l-2.292,8.94c0,0.043,0,0.089,0,0.133c-0.043,0.046-0.068,0.093-0.068,0.137
		c0,0.408,0.248,0.609,0.743,0.609h4.918c0.495,0,0.743-0.201,0.743-0.609c0-0.044,0-0.091,0-0.137
		C457.42,27.478,457.398,27.432,457.398,27.389L457.398,27.389z"/>
</g>
</svg>
